<svg width="407" height="75" viewBox="0 0 407 75" fill="none" xmlns="http://www.w3.org/2000/svg">
<path d="M6.444 74C4.652 74 3.18 73.584 2.028 72.752C0.876 71.92 0.3 70.992 0.3 69.968V32.24C0.3 31.088 0.876 30.16 2.028 29.456C3.18 28.752 4.652 28.4 6.444 28.4C7.98 28.4 9.26 28.752 10.284 29.456C11.372 30.16 11.916 31.088 11.916 32.24V35.12C13.004 33.264 14.604 31.6 16.716 30.128C18.828 28.592 21.484 27.824 24.684 27.824C27.436 27.824 29.868 28.72 31.98 30.512C34.092 32.304 35.66 34.608 36.684 37.424C38.348 34.16 40.46 31.76 43.02 30.224C45.644 28.624 48.332 27.824 51.084 27.824C54.028 27.824 56.78 28.592 59.34 30.128C61.964 31.6 64.076 33.808 65.676 36.752C67.34 39.632 68.172 43.152 68.172 47.312V69.968C68.172 70.992 67.564 71.92 66.348 72.752C65.132 73.584 63.66 74 61.932 74C60.268 74 58.828 73.584 57.612 72.752C56.396 71.92 55.788 70.992 55.788 69.968V47.312C55.788 45.392 55.404 43.792 54.636 42.512C53.932 41.232 52.972 40.272 51.756 39.632C50.54 38.928 49.292 38.576 48.012 38.576C46.796 38.576 45.612 38.928 44.46 39.632C43.308 40.272 42.348 41.232 41.58 42.512C40.812 43.792 40.428 45.36 40.428 47.216V70.064C40.428 71.472 39.756 72.496 38.412 73.136C37.132 73.712 35.724 74 34.188 74C32.78 74 31.404 73.712 30.06 73.136C28.716 72.496 28.044 71.472 28.044 70.064V47.312C28.044 45.52 27.66 43.984 26.892 42.704C26.188 41.424 25.228 40.432 24.012 39.728C22.86 39.024 21.612 38.672 20.268 38.672C18.988 38.672 17.772 38.992 16.62 39.632C15.468 40.272 14.508 41.232 13.74 42.512C13.036 43.792 12.684 45.392 12.684 47.312V69.968C12.684 70.992 12.076 71.92 10.86 72.752C9.644 73.584 8.172 74 6.444 74ZM98.8665 74.864C94.3225 74.864 90.2905 74.064 86.7705 72.464C83.3145 70.8 80.5945 68.496 78.6105 65.552C76.6265 62.544 75.6345 59.088 75.6345 55.184V47.024C75.6345 43.568 76.5625 40.4 78.4185 37.52C80.3385 34.576 82.8665 32.24 86.0025 30.512C89.2025 28.72 92.7545 27.824 96.6585 27.824C100.243 27.824 103.507 28.592 106.451 30.128C109.459 31.664 111.891 33.776 113.747 36.464C115.603 39.152 116.531 42.288 116.531 45.872C116.531 48.624 116.083 50.608 115.187 51.824C114.291 52.976 113.139 53.712 111.731 54.032C110.387 54.288 108.979 54.416 107.507 54.416H88.0185V55.856C88.0185 58.608 89.0425 60.848 91.0905 62.576C93.2025 64.24 95.9225 65.072 99.2505 65.072C101.363 65.072 103.123 64.752 104.531 64.112C105.939 63.472 107.155 62.864 108.179 62.288C109.203 61.712 110.163 61.424 111.059 61.424C112.019 61.424 112.851 61.744 113.555 62.384C114.259 63.024 114.803 63.792 115.187 64.688C115.571 65.52 115.763 66.256 115.763 66.896C115.763 67.984 115.059 69.168 113.651 70.448C112.307 71.664 110.355 72.72 107.795 73.616C105.299 74.448 102.323 74.864 98.8665 74.864ZM88.0185 47.12H102.035C103.123 47.12 103.859 46.96 104.243 46.64C104.691 46.256 104.915 45.552 104.915 44.528C104.915 43.056 104.499 41.744 103.667 40.592C102.899 39.44 101.875 38.544 100.595 37.904C99.3785 37.264 98.0025 36.944 96.4665 36.944C94.9945 36.944 93.6185 37.264 92.3385 37.904C91.0585 38.48 90.0025 39.344 89.1705 40.496C88.4025 41.584 88.0185 42.896 88.0185 44.432V47.12ZM141.524 74C135.764 74 131.348 72.752 128.276 70.256C125.268 67.76 123.764 63.792 123.764 58.352V11.888C123.764 10.736 124.436 9.808 125.78 9.10399C127.124 8.4 128.5 8.048 129.908 8.048C131.444 8.048 132.852 8.4 134.132 9.10399C135.476 9.808 136.148 10.736 136.148 11.888V28.4H147.476C148.5 28.4 149.268 28.88 149.78 29.84C150.356 30.736 150.644 31.76 150.644 32.912C150.644 34.064 150.356 35.12 149.78 36.08C149.268 36.976 148.5 37.424 147.476 37.424H136.148V58.352C136.148 60.272 136.532 61.616 137.3 62.384C138.132 63.152 139.54 63.536 141.524 63.536H145.268C147.06 63.536 148.372 64.08 149.204 65.168C150.1 66.256 150.548 67.44 150.548 68.72C150.548 70.064 150.1 71.28 149.204 72.368C148.372 73.456 147.06 74 145.268 74H141.524ZM166.748 74.864C163.356 74.864 160.412 73.84 157.916 71.792C155.484 69.68 154.268 66.448 154.268 62.096C154.268 58.448 155.196 55.6 157.052 53.552C158.972 51.504 161.596 50.064 164.924 49.232C168.316 48.4 172.22 47.984 176.636 47.984H180.572V46.736C180.572 45.328 180.284 43.952 179.708 42.608C179.196 41.264 178.332 40.144 177.116 39.248C175.964 38.352 174.3 37.904 172.124 37.904C169.692 37.904 167.804 38.16 166.46 38.672C165.18 39.12 164.188 39.6 163.484 40.112C162.78 40.624 162.012 40.88 161.18 40.88C159.836 40.88 158.78 40.208 158.012 38.864C157.308 37.52 156.956 36.144 156.956 34.736C156.956 33.392 157.756 32.208 159.356 31.184C161.02 30.096 163.036 29.264 165.404 28.688C167.772 28.112 170.076 27.824 172.316 27.824C177.308 27.824 181.308 28.72 184.316 30.512C187.324 32.304 189.5 34.608 190.844 37.424C192.252 40.24 192.956 43.28 192.956 46.544V69.968C192.956 71.12 192.38 72.08 191.228 72.848C190.076 73.616 188.636 74 186.908 74C185.308 74 183.964 73.616 182.876 72.848C181.852 72.08 181.34 71.12 181.34 69.968V67.28C179.612 69.264 177.564 71.024 175.196 72.56C172.892 74.096 170.076 74.864 166.748 74.864ZM171.74 65.648C173.084 65.648 174.428 65.2 175.772 64.304C177.116 63.408 178.236 62.256 179.132 60.848C180.092 59.44 180.572 57.968 180.572 56.432V54.416H179.132C177.02 54.416 175.004 54.544 173.084 54.8C171.164 55.056 169.596 55.632 168.38 56.528C167.228 57.36 166.652 58.672 166.652 60.464C166.652 62.256 167.132 63.568 168.092 64.4C169.116 65.232 170.332 65.648 171.74 65.648ZM205.6 74.576C204.32 74.576 203.232 74.128 202.336 73.232C201.504 72.336 201.088 71.312 201.088 70.16C201.088 68.88 201.504 67.824 202.336 66.992C203.232 66.096 204.32 65.648 205.6 65.648C206.752 65.648 207.744 66.096 208.576 66.992C209.472 67.824 209.92 68.88 209.92 70.16C209.92 71.312 209.472 72.336 208.576 73.232C207.744 74.128 206.752 74.576 205.6 74.576Z" fill="white"/>
<path d="M234.966 74.672C232.022 74.672 229.238 73.84 226.614 72.176C223.99 70.448 221.878 68.176 220.278 65.36C218.742 62.544 217.974 59.568 217.974 56.432V46.064C217.974 42.736 218.742 39.728 220.278 37.04C221.878 34.288 223.99 32.112 226.614 30.512C229.238 28.848 232.118 28.016 235.254 28.016C238.39 28.016 241.014 28.784 243.126 30.32C245.302 31.792 246.902 33.456 247.926 35.312V3.152C247.926 2.384 248.246 1.80799 248.886 1.424C249.526 0.975998 250.262 0.751999 251.094 0.751999C252.054 0.751999 252.79 0.975998 253.302 1.424C253.878 1.80799 254.166 2.384 254.166 3.152V71.504C254.166 72.144 253.878 72.72 253.302 73.232C252.79 73.744 252.054 74 251.094 74C250.326 74 249.622 73.744 248.982 73.232C248.406 72.72 248.118 72.144 248.118 71.504V67.28C247.158 69.264 245.462 70.992 243.03 72.464C240.662 73.936 237.974 74.672 234.966 74.672ZM236.118 68.912C238.422 68.912 240.438 68.336 242.166 67.184C243.958 65.968 245.366 64.624 246.39 63.152C247.414 61.616 247.926 60.368 247.926 59.408V46.064C247.926 43.44 247.35 41.232 246.198 39.44C245.046 37.648 243.574 36.272 241.782 35.312C239.99 34.288 238.134 33.776 236.214 33.776C234.038 33.776 232.054 34.384 230.262 35.6C228.47 36.752 227.03 38.256 225.942 40.112C224.854 41.968 224.31 43.952 224.31 46.064V56.432C224.31 58.544 224.854 60.56 225.942 62.48C227.03 64.4 228.47 65.968 230.262 67.184C232.054 68.336 234.006 68.912 236.118 68.912ZM269.37 15.152C268.218 15.152 267.194 14.768 266.298 14C265.466 13.168 265.05 12.208 265.05 11.12C265.05 10.032 265.466 9.104 266.298 8.336C267.194 7.568 268.218 7.184 269.37 7.184C270.522 7.184 271.514 7.568 272.346 8.336C273.178 9.104 273.594 10.032 273.594 11.12C273.594 12.208 273.178 13.168 272.346 14C271.514 14.768 270.522 15.152 269.37 15.152ZM269.274 74C268.442 74 267.706 73.744 267.066 73.232C266.49 72.72 266.202 72.144 266.202 71.504V30.992C266.202 30.224 266.49 29.648 267.066 29.264C267.706 28.816 268.442 28.592 269.274 28.592C270.17 28.592 270.906 28.816 271.482 29.264C272.122 29.648 272.442 30.224 272.442 30.992V71.504C272.442 72.144 272.122 72.72 271.482 73.232C270.906 73.744 270.17 74 269.274 74ZM294.47 74.672C290.822 74.672 287.718 73.648 285.158 71.6C282.662 69.488 281.414 66.288 281.414 62C281.414 58.48 282.342 55.792 284.198 53.936C286.118 52.016 288.742 50.704 292.07 50C295.462 49.232 299.366 48.848 303.781 48.848H308.678V46.64C308.678 44.528 308.294 42.48 307.526 40.496C306.822 38.448 305.638 36.784 303.974 35.504C302.374 34.16 300.166 33.488 297.35 33.488C295.238 33.488 293.51 33.712 292.166 34.16C290.822 34.608 289.766 35.088 288.998 35.6C288.23 36.048 287.59 36.272 287.078 36.272C286.31 36.272 285.67 35.888 285.158 35.12C284.71 34.352 284.486 33.648 284.486 33.008C284.486 32.112 285.158 31.312 286.502 30.608C287.846 29.84 289.51 29.232 291.494 28.784C293.542 28.272 295.558 28.016 297.542 28.016C301.83 28.016 305.222 28.912 307.718 30.704C310.278 32.432 312.102 34.704 313.19 37.52C314.342 40.336 314.918 43.344 314.918 46.544V71.504C314.918 72.208 314.63 72.816 314.054 73.328C313.542 73.776 312.806 74 311.846 74C311.078 74 310.374 73.776 309.734 73.328C309.158 72.816 308.87 72.208 308.87 71.504V67.28C307.27 69.2 305.286 70.928 302.918 72.464C300.55 73.936 297.734 74.672 294.47 74.672ZM296.006 69.392C298.118 69.392 300.134 68.848 302.054 67.76C303.974 66.672 305.542 65.36 306.758 63.824C308.038 62.224 308.678 60.72 308.678 59.312V53.168H304.646C301.766 53.168 299.014 53.36 296.39 53.744C293.83 54.064 291.718 54.8 290.054 55.952C288.454 57.104 287.654 58.928 287.654 61.424C287.654 64.176 288.454 66.192 290.054 67.472C291.718 68.752 293.702 69.392 296.006 69.392ZM294.95 17.456C294.31 17.456 293.734 17.168 293.222 16.592C292.71 16.016 292.454 15.408 292.454 14.768C292.454 13.872 292.806 13.264 293.51 12.944L304.262 7.088C304.582 6.896 304.838 6.8 305.03 6.8C305.734 6.8 306.278 7.088 306.661 7.664C307.11 8.24 307.334 8.88 307.334 9.584C307.334 10.544 306.95 11.248 306.182 11.696L295.91 17.072C295.782 17.136 295.622 17.232 295.43 17.36C295.238 17.424 295.078 17.456 294.95 17.456ZM329.555 74C328.723 74 327.987 73.744 327.347 73.232C326.771 72.72 326.483 72.144 326.483 71.504V30.992C326.483 30.224 326.771 29.648 327.347 29.264C327.987 28.816 328.723 28.592 329.555 28.592C330.387 28.592 331.091 28.816 331.667 29.264C332.243 29.648 332.531 30.224 332.531 30.992V35.696C333.235 34.352 334.195 33.104 335.411 31.952C336.627 30.8 338.067 29.872 339.731 29.168C341.395 28.4 343.283 28.016 345.395 28.016H348.755C349.459 28.016 350.035 28.304 350.483 28.88C350.995 29.456 351.251 30.128 351.251 30.896C351.251 31.728 350.995 32.432 350.483 33.008C350.035 33.52 349.459 33.776 348.755 33.776H345.395C343.283 33.776 341.235 34.352 339.251 35.504C337.331 36.656 335.763 38.256 334.547 40.304C333.331 42.352 332.723 44.848 332.723 47.792V71.504C332.723 72.144 332.403 72.72 331.763 73.232C331.187 73.744 330.451 74 329.555 74ZM361.339 15.152C360.187 15.152 359.163 14.768 358.267 14C357.435 13.168 357.019 12.208 357.019 11.12C357.019 10.032 357.435 9.104 358.267 8.336C359.163 7.568 360.187 7.184 361.339 7.184C362.491 7.184 363.483 7.568 364.315 8.336C365.147 9.104 365.563 10.032 365.563 11.12C365.563 12.208 365.147 13.168 364.315 14C363.483 14.768 362.491 15.152 361.339 15.152ZM361.243 74C360.411 74 359.675 73.744 359.035 73.232C358.459 72.72 358.171 72.144 358.171 71.504V30.992C358.171 30.224 358.459 29.648 359.035 29.264C359.675 28.816 360.411 28.592 361.243 28.592C362.139 28.592 362.875 28.816 363.451 29.264C364.091 29.648 364.411 30.224 364.411 30.992V71.504C364.411 72.144 364.091 72.72 363.451 73.232C362.875 73.744 362.139 74 361.243 74ZM386.438 74.672C382.79 74.672 379.686 73.648 377.126 71.6C374.63 69.488 373.382 66.288 373.382 62C373.382 58.48 374.31 55.792 376.166 53.936C378.086 52.016 380.71 50.704 384.038 50C387.43 49.232 391.334 48.848 395.75 48.848H400.646V46.64C400.646 44.528 400.262 42.48 399.494 40.496C398.79 38.448 397.606 36.784 395.942 35.504C394.342 34.16 392.134 33.488 389.318 33.488C387.206 33.488 385.478 33.712 384.134 34.16C382.79 34.608 381.734 35.088 380.966 35.6C380.198 36.048 379.558 36.272 379.046 36.272C378.278 36.272 377.638 35.888 377.126 35.12C376.678 34.352 376.454 33.648 376.454 33.008C376.454 32.112 377.126 31.312 378.47 30.608C379.814 29.84 381.478 29.232 383.462 28.784C385.51 28.272 387.526 28.016 389.51 28.016C393.798 28.016 397.19 28.912 399.686 30.704C402.246 32.432 404.07 34.704 405.158 37.52C406.31 40.336 406.886 43.344 406.886 46.544V71.504C406.886 72.208 406.598 72.816 406.022 73.328C405.51 73.776 404.774 74 403.814 74C403.046 74 402.342 73.776 401.702 73.328C401.126 72.816 400.838 72.208 400.838 71.504V67.28C399.238 69.2 397.254 70.928 394.886 72.464C392.518 73.936 389.702 74.672 386.438 74.672ZM387.974 69.392C390.086 69.392 392.102 68.848 394.022 67.76C395.942 66.672 397.51 65.36 398.726 63.824C400.006 62.224 400.646 60.72 400.646 59.312V53.168H396.614C393.734 53.168 390.982 53.36 388.358 53.744C385.798 54.064 383.686 54.8 382.022 55.952C380.422 57.104 379.622 58.928 379.622 61.424C379.622 64.176 380.422 66.192 382.022 67.472C383.686 68.752 385.67 69.392 387.974 69.392Z" fill="#45EDAD"/>
</svg>
